<svg width="12" height="14" viewBox="0 0 12 14" fill="none" xmlns="http://www.w3.org/2000/svg">
<g id="Group 8">
<path id="Vector" d="M4.16561 13.5067C4.65261 13.5067 5.0474 13.0442 5.0474 12.4736C5.0474 11.903 4.65261 11.4405 4.16561 11.4405C3.6786 11.4405 3.28381 11.903 3.28381 12.4736C3.28381 13.0442 3.6786 13.5067 4.16561 13.5067Z" fill="#FCF9F9"/>
<path id="Vector_2" d="M9.52303 13.5067C10.01 13.5067 10.4048 13.0442 10.4048 12.4736C10.4048 11.903 10.01 11.4405 9.52303 11.4405C9.03603 11.4405 8.64124 11.903 8.64124 12.4736C8.64124 13.0442 9.03603 13.5067 9.52303 13.5067Z" fill="#FCF9F9"/>
<path id="Vector_3" d="M11.9059 1.27937C11.8694 1.22669 11.8234 1.18414 11.7713 1.15477C11.7191 1.12539 11.662 1.10993 11.6041 1.10948H3.44459L3.69933 2.0278H11.0907L10.0443 7.5377H4.1657L2.37469 0.893673C2.35531 0.823173 2.32167 0.75921 2.27663 0.707241C2.23159 0.655271 2.17649 0.616838 2.11603 0.59522L0.509207 0.0166801C0.4598 -0.00110767 0.407886 -0.00731982 0.356429 -0.0016017C0.304973 0.00411641 0.254981 0.0216528 0.209309 0.0500063C0.117071 0.107269 0.0480257 0.205115 0.0173633 0.322021C-0.013299 0.438926 -0.00306703 0.565314 0.0458084 0.673381C0.0946838 0.781448 0.178199 0.862341 0.277982 0.898265L1.68493 1.40334L3.48378 8.06114L2.84106 8.67641L2.79011 8.7361C2.63113 8.95076 2.54101 9.22364 2.53529 9.50776C2.52957 9.79189 2.60859 10.0695 2.75876 10.2927C2.86557 10.4448 3.00131 10.5656 3.15511 10.6454C3.3089 10.7251 3.47649 10.7615 3.64447 10.7518H10.1854C10.2893 10.7518 10.389 10.7034 10.4625 10.6173C10.536 10.5312 10.5773 10.4144 10.5773 10.2927C10.5773 10.1709 10.536 10.0541 10.4625 9.96798C10.389 9.88187 10.2893 9.83349 10.1854 9.83349H3.58176C3.53663 9.83169 3.49266 9.81627 3.4541 9.78875C3.41554 9.76122 3.38369 9.72251 3.36162 9.67635C3.33956 9.63019 3.32803 9.57814 3.32815 9.52524C3.32826 9.47233 3.34003 9.42036 3.36229 9.37433L4.30679 8.45602H10.3578C10.4484 8.45861 10.537 8.42434 10.6084 8.35904C10.6799 8.29374 10.7298 8.20145 10.7497 8.09787L11.9921 1.66965C12.004 1.6012 12.0024 1.53046 11.9875 1.46283C11.9726 1.3952 11.9446 1.33245 11.9059 1.27937Z" fill="#FCF9F9"/>
</g>
</svg>
